<svg width="63" height="38" viewBox="0 0 63 38" fill="none" xmlns="http://www.w3.org/2000/svg">
<path d="M1.17295 23.6293C0.984067 23.507 0.835656 23.3506 0.727719 23.1603C0.606291 22.97 0.511849 22.7661 0.444389 22.5486C0.363435 22.3311 0.302721 22.1069 0.262245 21.8758C0.208277 21.6311 0.15431 21.4 0.100342 21.1825C0.100342 20.9922 0.140818 20.8563 0.221769 20.7747C0.302721 20.6796 0.390419 20.5912 0.484862 20.5096C0.80867 20.4961 1.09875 20.4689 1.3551 20.4281C1.61144 20.3873 1.86104 20.3465 2.1039 20.3058C2.34676 20.265 2.58961 20.231 2.83247 20.2038C3.07532 20.163 3.33842 20.1426 3.62175 20.1426C3.82413 19.7212 4.01302 19.3202 4.18843 18.9397C4.36379 18.5455 4.53244 18.1716 4.69437 17.8182C4.77532 17.4784 4.87649 17.1657 4.99793 16.8803C5.13284 16.5812 5.26104 16.3026 5.38244 16.0443C5.50388 15.7724 5.61181 15.5074 5.70627 15.2491C5.80069 14.9772 5.86141 14.6918 5.88839 14.3927C6.05032 13.917 6.19199 13.482 6.31339 13.0878C6.4483 12.68 6.54952 12.1974 6.61695 11.6401C6.10429 11.7217 5.69276 11.8032 5.38244 11.8848C5.07212 11.9527 4.84951 12.0207 4.7146 12.0887C4.44478 12.0751 4.22888 12.0207 4.06698 11.9256C3.91857 11.8304 3.79715 11.7149 3.7027 11.5789C3.60826 11.443 3.52731 11.2867 3.45985 11.11C3.39239 10.9333 3.31143 10.7497 3.21699 10.5594C3.27096 10.4371 3.28445 10.2604 3.25747 10.0293C3.23048 9.78462 3.14953 9.60794 3.01461 9.49916C3.12254 9.47197 3.2035 9.38366 3.25747 9.23412C3.31143 9.07101 3.31818 8.94866 3.2777 8.86711C3.50707 8.79912 3.74992 8.75837 4.00627 8.74476C4.26262 8.71757 4.51221 8.69719 4.75509 8.68358C5.0114 8.65639 5.25429 8.62921 5.48365 8.60203C5.71303 8.56127 5.90866 8.48648 6.07055 8.37774C6.77213 8.35056 7.50069 8.32337 8.25624 8.29619C9.02529 8.269 9.73363 8.23501 10.3812 8.19421C10.6241 8.27581 10.9007 8.31657 11.211 8.31657C11.5348 8.31657 11.8519 8.33694 12.1622 8.37774C12.486 8.41854 12.7693 8.50686 13.0122 8.64282C13.2685 8.77875 13.4439 9.0166 13.5384 9.35643C13.7407 9.38366 13.8891 9.43803 13.9836 9.51958C14.0915 9.60113 14.159 9.70307 14.186 9.82542C14.213 9.93416 14.2197 10.0633 14.2062 10.2128C14.2062 10.3488 14.2062 10.4847 14.2062 10.6206C13.9904 10.7837 13.7137 10.9196 13.3764 11.0284C13.0526 11.1236 12.6951 11.2051 12.3038 11.2731C11.9126 11.3275 11.5011 11.3683 11.0693 11.3954C10.6511 11.409 10.2396 11.4226 9.8348 11.4362C9.76737 11.8848 9.64592 12.4149 9.47052 13.0266C9.30863 13.6247 9.13998 14.216 8.96457 14.8005C8.78917 15.3714 8.63403 15.888 8.49912 16.3501C8.37768 16.7987 8.32371 17.091 8.33718 17.2269C8.20227 17.5395 8.08759 17.8046 7.99317 18.0221C7.91218 18.2396 7.83123 18.4435 7.75029 18.6338C7.68285 18.8241 7.60862 19.0144 7.52767 19.2047C7.4602 19.3814 7.37254 19.5853 7.26457 19.8164H8.64078C8.66777 19.9659 8.72845 20.0679 8.8229 20.1222C8.91736 20.1766 9.01854 20.2242 9.12646 20.265C9.23439 20.3058 9.32885 20.3601 9.4098 20.4281C9.50426 20.4825 9.55147 20.5776 9.55147 20.7135C9.80782 20.7815 9.96971 20.8835 10.0372 21.0194C10.1047 21.1553 10.1181 21.3048 10.0777 21.468C10.0507 21.6175 9.98322 21.7738 9.87529 21.9369C9.78084 22.1 9.68638 22.2428 9.59196 22.3651C9.47052 22.3379 9.35583 22.3719 9.24791 22.4671C9.13998 22.5486 9.03876 22.6438 8.94434 22.7525C8.55308 22.6981 8.16853 22.6913 7.79078 22.7321C7.41299 22.7729 7.06222 22.8069 6.73839 22.8341C6.67096 22.8477 6.64393 22.8884 6.65744 22.9564C6.67096 23.0108 6.65744 23.0516 6.61695 23.0788C6.19871 22.9428 5.76699 22.8884 5.32172 22.9157C4.89 22.9428 4.44478 23.0108 3.98603 23.1195C3.5408 23.2147 3.08207 23.3166 2.60985 23.4254C2.13763 23.5477 1.65866 23.6157 1.17295 23.6293ZM15.6633 19.6737C15.5419 19.7009 15.4542 19.7756 15.4002 19.898C15.3463 20.0067 15.2923 20.1222 15.2383 20.2446C15.1979 20.3669 15.1506 20.4825 15.0967 20.5912C15.0562 20.6864 14.9887 20.7339 14.8943 20.7339C14.8808 20.8427 14.8403 20.9378 14.7729 21.0194C14.7189 21.1009 14.665 21.1893 14.611 21.2845C14.557 21.366 14.5165 21.4612 14.4895 21.5699C14.4626 21.6651 14.476 21.7806 14.53 21.9166C14.4221 21.9981 14.3546 22.1137 14.3277 22.2632C14.3007 22.4127 14.2669 22.5554 14.2264 22.6913C14.1995 22.8273 14.1455 22.9428 14.0645 23.038C13.9836 23.1331 13.8352 23.1739 13.6193 23.1603C13.5788 23.2147 13.5721 23.2487 13.5991 23.2623C13.6261 23.2759 13.6463 23.3234 13.6598 23.405C13.5114 23.3778 13.3967 23.3846 13.3158 23.4254C13.2483 23.4798 13.1606 23.5137 13.0526 23.5273C12.7963 23.4458 12.5804 23.3031 12.405 23.0991C12.2431 22.8952 12.0947 22.671 11.9598 22.4263C11.8384 22.168 11.7237 21.9098 11.6158 21.6515C11.5213 21.3932 11.4269 21.1689 11.3324 20.9786C11.3729 20.8291 11.3796 20.6864 11.3526 20.5504C11.3257 20.4009 11.2785 20.2785 11.211 20.1834C11.8721 18.7697 12.5939 17.2609 13.3764 15.6569C14.159 14.0529 14.901 12.4693 15.6026 10.9061C15.9129 11.0284 16.2165 11.1712 16.5133 11.3343C16.8237 11.4838 17.1002 11.6605 17.3431 11.8644C17.5994 12.0683 17.8153 12.3062 17.9907 12.578C18.1661 12.8363 18.2808 13.1286 18.3347 13.4548C18.3078 13.5363 18.274 13.5703 18.2336 13.5567C18.2066 13.5295 18.1796 13.5363 18.1526 13.5771C18.2066 13.6451 18.2336 13.6927 18.2336 13.7199C18.247 13.7471 18.247 13.7742 18.2336 13.8014C18.2336 13.8286 18.2336 13.8694 18.2336 13.9238C18.2336 13.9645 18.2538 14.0257 18.2943 14.1073C18.2403 14.0937 18.1998 14.1005 18.1728 14.1276C18.1594 14.1548 18.1189 14.1548 18.0514 14.1276C18.1054 14.2772 18.1189 14.3995 18.0919 14.4947C18.0784 14.5898 18.0514 14.6782 18.011 14.7597C17.9705 14.8277 17.9367 14.9093 17.9097 15.0044C17.8828 15.086 17.8895 15.1947 17.93 15.3307C17.8895 15.3307 17.8558 15.3442 17.8288 15.3714C17.8153 15.385 17.8018 15.4054 17.7883 15.4326C17.7748 15.4462 17.7546 15.4666 17.7276 15.4938C17.7141 15.5074 17.6871 15.5074 17.6467 15.4938C17.6871 15.7928 17.7006 16.0919 17.6871 16.3909C17.6737 16.69 17.6601 16.9958 17.6467 17.3085C17.6467 17.6075 17.6534 17.9269 17.6669 18.2668C17.6804 18.593 17.7276 18.9328 17.8086 19.2862C18.2943 19.0008 18.6788 18.6338 18.9621 18.1852C19.2589 17.7366 19.4951 17.2337 19.6705 16.6764C19.8593 16.1191 20.001 15.5209 20.0955 14.8821C20.1899 14.2432 20.2911 13.5907 20.399 12.9247C20.5205 12.8023 20.6149 12.6528 20.6824 12.4761C20.7498 12.2994 20.8105 12.1159 20.8645 11.9256C20.9185 11.7217 20.9725 11.5246 21.0264 11.3343C21.0804 11.1304 21.1478 10.9468 21.2288 10.7837C21.4312 10.8109 21.5998 10.8789 21.7348 10.9876C21.8831 11.0828 22.018 11.1915 22.1395 11.3139C22.2609 11.4226 22.3891 11.5314 22.524 11.6401C22.6589 11.7353 22.8276 11.7964 23.03 11.8236C23.1919 12.0547 23.3403 12.279 23.4752 12.4965C23.6101 12.714 23.6978 12.945 23.7383 13.1897C23.6708 13.2985 23.6169 13.4208 23.5764 13.5567C23.5494 13.6927 23.5157 13.8286 23.4752 13.9645C23.4347 14.1005 23.3808 14.2296 23.3133 14.3519C23.2458 14.4607 23.1514 14.5558 23.03 14.6374C22.9895 14.9908 22.9355 15.317 22.868 15.6161C22.8141 15.9016 22.7534 16.187 22.6859 16.4725C22.632 16.758 22.5847 17.057 22.5443 17.3696C22.5038 17.6687 22.4903 18.0017 22.5038 18.3687C22.3958 18.6814 22.2812 19.0144 22.1597 19.3678C22.0383 19.7212 21.9439 20.0407 21.8764 20.3262C21.6605 20.5029 21.4919 20.7135 21.3704 20.9582C21.249 21.2029 21.1208 21.4476 20.9859 21.6923C20.932 21.7466 20.8982 21.7602 20.8848 21.733C20.8712 21.7058 20.824 21.6855 20.7431 21.6719C20.7566 21.7262 20.7566 21.767 20.7431 21.7942C20.7296 21.8214 20.7093 21.8486 20.6824 21.8758C20.6689 21.8894 20.6554 21.9166 20.6419 21.9573C20.6419 21.9981 20.6554 22.0525 20.6824 22.1205C20.4935 22.202 20.3248 22.3176 20.1764 22.4671C20.028 22.6166 19.8661 22.7525 19.6907 22.8749C19.5288 22.9972 19.3264 23.0788 19.0836 23.1195C18.8542 23.1603 18.5506 23.1128 18.1728 22.9768C17.6197 22.569 17.1272 22.1 16.6955 21.5699C16.2772 21.0398 15.9332 20.4077 15.6633 19.6737ZM33.1894 17.8794C33.1759 17.9474 33.1625 18.0085 33.1489 18.0629C33.1355 18.1037 33.122 18.1445 33.1085 18.1852C33.095 18.226 33.0882 18.2804 33.0882 18.3484C33.0882 18.4027 33.0882 18.4775 33.0882 18.5726C32.6835 19.2931 32.1708 19.898 31.5502 20.3873C30.943 20.8767 30.2684 21.3116 29.5264 21.6923C28.7978 22.0593 28.0355 22.3991 27.2395 22.7118C26.4434 23.0108 25.6677 23.337 24.9121 23.6904C24.5883 23.6089 24.3387 23.473 24.1633 23.2827C24.0014 23.0923 23.8732 22.8749 23.7788 22.6302C23.6978 22.3719 23.6371 22.0933 23.5966 21.7942C23.5696 21.4816 23.5426 21.1621 23.5157 20.8359C23.5562 20.6864 23.6101 20.564 23.6776 20.4689C23.7585 20.3601 23.799 20.2106 23.799 20.0203C23.9069 19.6669 24.0149 19.3202 24.1228 18.9804C24.2308 18.6406 24.2982 18.2939 24.3252 17.9405C24.3657 17.8318 24.4399 17.757 24.5478 17.7163C24.6153 17.0638 24.6153 16.4045 24.5478 15.7385C24.4939 15.0588 24.3859 14.4267 24.224 13.8422C24.2375 13.7063 24.251 13.6111 24.2645 13.5567C24.2915 13.4888 24.2915 13.4412 24.2645 13.414C24.251 13.3053 24.2847 13.2509 24.3657 13.2509C24.4601 13.2509 24.5545 13.2509 24.649 13.2509C24.649 13.047 24.6085 12.8431 24.5276 12.6392C24.4601 12.4353 24.3926 12.2042 24.3252 11.9459C24.4196 11.742 24.4804 11.5449 24.5073 11.3546C24.5343 11.1507 24.595 10.974 24.6895 10.8245C25.4181 11.0556 26.1129 11.3343 26.774 11.6605C27.4486 11.9867 28.1097 12.2246 28.7573 12.3741C29.243 12.7276 29.7422 13.081 30.2549 13.4344C30.7676 13.7742 31.2331 14.1548 31.6513 14.5762C32.0696 14.984 32.4204 15.453 32.7037 15.9831C32.987 16.5132 33.1489 17.1453 33.1894 17.8794ZM28.393 19.0008C28.6764 18.892 28.9529 18.7765 29.2228 18.6542C29.5061 18.5318 29.7624 18.3959 29.9918 18.2464C30.2347 18.0833 30.4506 17.8997 30.6394 17.6959C30.8283 17.492 30.9835 17.2473 31.1049 16.9618C31.024 16.7987 30.916 16.656 30.7811 16.5337C30.6462 16.3977 30.5113 16.2754 30.3764 16.1666C30.2414 16.0443 30.1065 15.922 29.9716 15.7996C29.8501 15.6773 29.749 15.5278 29.668 15.351C29.4926 15.3238 29.3375 15.2763 29.2025 15.2083C29.0676 15.1267 28.9327 15.052 28.7978 14.984C28.6764 14.9025 28.5414 14.8277 28.393 14.7597C28.2581 14.6918 28.0962 14.651 27.9073 14.6374C27.6105 14.4879 27.3406 14.3791 27.0978 14.3112C26.8684 14.2432 26.693 14.1548 26.5716 14.0461C26.4772 14.0461 26.403 14.0665 26.349 14.1073C26.4839 14.6238 26.5851 15.1132 26.6526 15.5753C26.72 16.0239 26.7537 16.4793 26.7537 16.9414C26.7673 17.39 26.747 17.8522 26.693 18.3279C26.6391 18.8037 26.5649 19.3202 26.4704 19.8776C26.6054 19.864 26.7268 19.8368 26.8347 19.796C26.9561 19.7416 27.0708 19.6873 27.1787 19.6329C27.3002 19.5785 27.4216 19.531 27.543 19.4902C27.6779 19.4358 27.8331 19.4018 28.0085 19.3882C28.049 19.3067 28.1029 19.2387 28.1704 19.1843C28.2514 19.1299 28.3255 19.0688 28.393 19.0008ZM37.8037 21.9573C37.8711 22.3651 37.8441 22.6846 37.7227 22.9157C37.6148 23.1467 37.4529 23.3166 37.237 23.4254C37.0346 23.5477 36.7985 23.6157 36.5287 23.6293C36.2589 23.6429 36.0025 23.6293 35.7596 23.5885C35.6247 23.3982 35.5033 23.1603 35.3954 22.8749C35.2874 22.5894 35.1862 22.2971 35.0918 21.9981C34.9974 21.6855 34.9097 21.3796 34.8287 21.0806C34.7612 20.7815 34.7005 20.5164 34.6466 20.2854C34.714 20.1222 34.7545 19.9387 34.768 19.7349C34.795 19.5173 34.8085 19.2999 34.8085 19.0824C34.822 18.8649 34.8287 18.6474 34.8287 18.4299C34.8422 18.1988 34.8624 17.9813 34.8894 17.7774C34.9839 17.2065 35.1188 16.6628 35.2942 16.1462C35.4831 15.6297 35.6315 15.0928 35.7394 14.5355C35.7664 14.4131 35.7529 14.2976 35.699 14.1888C35.6585 14.0801 35.6517 13.9781 35.6787 13.883C35.6922 13.8286 35.7327 13.7946 35.8001 13.781C35.8676 13.7538 35.9081 13.7063 35.9216 13.6383C35.962 13.4888 35.9688 13.3664 35.9418 13.2713C35.9283 13.1761 35.9553 13.0606 36.0227 12.9247C36.0902 12.8159 36.1712 12.6596 36.2656 12.4557C36.3736 12.2382 36.414 12.0139 36.387 11.7828C36.5085 11.7013 36.6231 11.6061 36.7311 11.4974C36.839 11.3886 36.9469 11.2935 37.0549 11.2119C37.1763 11.1167 37.3045 11.0352 37.4394 10.9673C37.5878 10.8993 37.7632 10.8653 37.9656 10.8653C38.0735 11.0012 38.141 11.1507 38.168 11.3139C38.2084 11.477 38.2422 11.6401 38.2691 11.8032C38.3096 11.9663 38.3636 12.1227 38.4311 12.2722C38.4985 12.4081 38.6132 12.5169 38.7751 12.5984C38.7751 12.7072 38.7751 12.8431 38.7751 13.0062C38.7751 13.1693 38.7818 13.3324 38.7954 13.4956C38.8088 13.6451 38.8358 13.7878 38.8763 13.9238C38.9303 14.0461 39.0112 14.1276 39.1191 14.1684C38.8763 14.8209 38.6469 15.4666 38.4311 16.1055C38.2287 16.7443 38.06 17.39 37.9251 18.0425C37.7902 18.6814 37.7025 19.327 37.662 19.9795C37.635 20.632 37.6823 21.2913 37.8037 21.9573ZM51.444 11.9052C51.4577 12.0003 51.4577 12.0751 51.444 12.1295C51.444 12.1702 51.4374 12.211 51.4237 12.2518C51.4237 12.2926 51.4237 12.3401 51.4237 12.3945C51.4237 12.4353 51.4374 12.5033 51.4643 12.5984C51.1808 13.0606 50.8505 13.38 50.4725 13.5567C50.1082 13.7199 49.7103 13.8422 49.2788 13.9238C48.8469 13.9917 48.4018 14.0665 47.943 14.1481C47.4978 14.2296 47.0523 14.4063 46.6071 14.6782C46.4318 14.6102 46.2697 14.6102 46.1213 14.6782C45.9866 14.7462 45.7844 14.7665 45.5141 14.7394C45.4333 14.8209 45.3322 14.8821 45.2108 14.9228C45.0893 14.95 44.9679 14.984 44.8464 15.0248C44.9003 15.1471 44.9206 15.2763 44.9074 15.4122C44.9074 15.5346 44.9273 15.6365 44.9679 15.718C45.44 15.7588 45.9597 15.752 46.5263 15.6977C47.1066 15.6433 47.6731 15.6093 48.226 15.5957C48.2397 15.6637 48.2331 15.7112 48.2062 15.7385C48.1792 15.752 48.1722 15.786 48.1858 15.8404C48.2803 15.9084 48.3748 15.9967 48.4689 16.1055C48.5634 16.2006 48.6579 16.2958 48.7524 16.3909C48.8469 16.4861 48.9414 16.5676 49.0359 16.6356C49.1437 16.69 49.2651 16.7103 49.4003 16.6968C49.4541 16.8055 49.4877 16.9279 49.5014 17.0638C49.5283 17.1861 49.5146 17.3153 49.4608 17.4512C49.2448 17.6007 49.0289 17.757 48.8129 17.9202C48.5974 18.0697 48.3678 18.2056 48.1249 18.3279C47.8957 18.4503 47.6462 18.5522 47.3764 18.6338C47.1198 18.7018 46.8297 18.7289 46.506 18.7154C46.4384 18.7154 46.3845 18.7154 46.3439 18.7154C46.317 18.7154 46.2768 18.695 46.2225 18.6542C46.1147 18.7221 45.9597 18.7426 45.757 18.7154C45.5684 18.6882 45.4201 18.7086 45.3119 18.7765C45.1635 18.7086 44.9815 18.6814 44.7656 18.695C44.5633 18.695 44.381 18.6678 44.2193 18.6134C44.0034 18.8989 43.8078 19.2047 43.632 19.531C43.4567 19.8572 43.3017 20.2038 43.1666 20.5708C43.6254 20.6388 44.0034 20.666 44.3002 20.6524C44.6106 20.6388 44.9003 20.6184 45.1701 20.5912C45.44 20.5504 45.7168 20.5164 45.9999 20.4893C46.2834 20.4485 46.6411 20.4349 47.0726 20.4485C47.3424 20.299 47.6595 20.2038 48.0238 20.163C48.4018 20.1086 48.7458 20.0271 49.0558 19.9183C49.164 19.9591 49.2585 20.0339 49.3393 20.1426C49.4201 20.2378 49.4943 20.333 49.5619 20.4281C49.6427 20.5096 49.724 20.5844 49.8048 20.6524C49.8856 20.7204 49.9871 20.7475 50.1082 20.7339C50.1625 20.7883 50.196 20.8563 50.2097 20.9378C50.2367 21.0058 50.257 21.0738 50.2702 21.1417C50.2839 21.2097 50.3038 21.2709 50.3312 21.3253C50.3714 21.366 50.4323 21.3796 50.5131 21.366C50.3108 21.8146 50.0746 22.1612 49.8048 22.4059C49.5486 22.637 49.2515 22.8137 48.9145 22.936C48.5771 23.0584 48.1991 23.1535 47.7809 23.2215C47.3764 23.2894 46.9242 23.371 46.4252 23.4662C46.3037 23.4934 46.2026 23.4865 46.1213 23.4458C46.0405 23.4186 45.946 23.405 45.8383 23.405C45.5278 23.473 45.1569 23.5341 44.725 23.5885C44.2935 23.6429 43.855 23.6633 43.4094 23.6497C42.9643 23.6361 42.5395 23.5749 42.1345 23.4662C41.73 23.371 41.3993 23.1943 41.1429 22.936C41.035 22.8409 40.9608 22.7321 40.9203 22.6098C40.8933 22.4739 40.8056 22.3719 40.6573 22.3039C40.6437 22.1272 40.6168 21.9301 40.5763 21.7127C40.5358 21.4952 40.4953 21.2709 40.4549 21.0398C40.4144 20.7951 40.3806 20.5572 40.3537 20.3262C40.3402 20.0951 40.3537 19.8844 40.3942 19.6941C40.4346 19.4902 40.5156 19.3067 40.637 19.1436C40.7719 18.9804 40.8192 18.8037 40.7787 18.6134C40.8461 18.5998 40.8866 18.5658 40.9001 18.5115C40.9136 18.4435 40.9675 18.4163 41.062 18.4299C41.1429 18.1852 41.2306 17.9541 41.3251 17.7366C41.4195 17.5192 41.5141 17.3085 41.6086 17.1045C41.7163 16.9007 41.8175 16.6968 41.912 16.4929C42.0201 16.2754 42.1213 16.0375 42.2158 15.7792C42.0268 15.6025 41.885 15.4122 41.7905 15.2083C41.7097 14.9908 41.6488 14.7801 41.6086 14.5762C41.5679 14.3587 41.5344 14.1413 41.5074 13.9238C41.4801 13.6927 41.433 13.4616 41.3656 13.2305C41.5004 13.0266 41.6624 12.8635 41.8514 12.7411C42.0537 12.6052 42.2696 12.4965 42.4989 12.4149C42.7281 12.3334 42.978 12.2654 43.2478 12.211C43.5176 12.1567 43.8007 12.0955 44.0979 12.0275C44.6375 11.8508 45.1162 11.7149 45.5345 11.6197C45.9663 11.5246 46.3845 11.4498 46.7895 11.3954C47.2077 11.3275 47.6392 11.2663 48.0847 11.2119C48.5299 11.1575 49.0359 11.076 49.6025 10.9673C49.724 11.0896 49.8383 11.1507 49.9465 11.1507C50.0004 11.0284 50.0613 10.9944 50.1285 11.0488C50.2097 11.0896 50.2433 11.0488 50.2296 10.9265C50.3647 11.1575 50.5334 11.3546 50.7357 11.5178C50.9516 11.6673 51.1879 11.7964 51.444 11.9052ZM51.2824 14.2092C51.3765 13.9238 51.5248 13.6791 51.7275 13.4752C51.9435 13.2713 52.1727 13.1014 52.4155 12.9654C52.6717 12.8159 52.9349 12.6936 53.2047 12.5984C53.4745 12.5033 53.7311 12.4217 53.974 12.3538C54.5136 12.1227 55.0868 11.9052 55.694 11.7013C56.3145 11.4838 56.942 11.2935 57.5762 11.1304C58.224 10.9673 58.8851 10.8653 59.5594 10.8245C60.2342 10.7702 60.9425 10.8517 61.6844 11.0692C61.725 11.2051 61.7856 11.3343 61.8668 11.4566C61.9476 11.5789 62.0284 11.7013 62.1097 11.8236C62.2038 11.9459 62.285 12.0683 62.3526 12.1906C62.4197 12.2994 62.4603 12.4149 62.4736 12.5372C62.6087 12.6596 62.7165 12.7955 62.7977 12.945C62.8785 13.081 62.8922 13.2645 62.8379 13.4956C62.7032 13.6043 62.5681 13.7063 62.4334 13.8014C62.3119 13.883 62.1768 13.9577 62.0284 14.0257C61.5294 13.9034 61.0233 13.8626 60.5106 13.9034C59.9979 13.9442 59.5391 13.9781 59.1346 14.0053C59.0131 13.883 58.8648 13.8218 58.6894 13.8218C58.5274 13.8218 58.3521 13.849 58.1631 13.9034C57.9877 13.9577 57.8054 14.0121 57.6168 14.0665C57.4415 14.1209 57.2728 14.1344 57.1107 14.1073C56.9756 14.216 56.8073 14.2908 56.6046 14.3315C56.416 14.3587 56.2067 14.3859 55.9775 14.4131C55.9639 14.4811 55.9775 14.5286 56.0177 14.5558C56.0584 14.5694 56.065 14.6102 56.038 14.6782C56.1189 14.7733 56.2204 14.8413 56.3419 14.8821C56.4766 14.9228 56.6117 14.9636 56.7464 15.0044C56.8948 15.0452 57.0228 15.0996 57.131 15.1675C57.2388 15.2219 57.313 15.317 57.3536 15.453C57.5558 15.453 57.7312 15.5006 57.8796 15.5957C58.0283 15.6909 58.1498 15.8064 58.2439 15.9423C58.3384 16.0783 58.4059 16.2278 58.4466 16.3909C58.5004 16.5404 58.5274 16.6764 58.5274 16.7987C58.568 16.9074 58.6152 16.9551 58.6691 16.9414C58.723 16.9279 58.7835 16.9551 58.8511 17.023C58.8917 17.1997 58.9928 17.3832 59.1549 17.5735C59.3165 17.7503 59.445 17.9474 59.5391 18.1648C59.566 18.5047 59.5864 18.8105 59.6 19.0824C59.6133 19.3407 59.566 19.6057 59.4583 19.8776C59.256 20.3805 58.9725 20.8291 58.6082 21.2233C58.2576 21.6175 57.8526 21.9709 57.3942 22.2836C56.9486 22.5826 56.4699 22.8409 55.9572 23.0584C55.4445 23.2759 54.9451 23.4594 54.4597 23.6089C54.4054 23.5953 54.3516 23.5953 54.2977 23.6089C54.2438 23.6225 54.2301 23.5885 54.2571 23.507C54.1493 23.6021 54.0278 23.6633 53.8927 23.6904C53.7713 23.7176 53.6366 23.7244 53.4882 23.7108C53.3398 23.7108 53.1844 23.7041 53.0228 23.6904C52.8744 23.6769 52.7326 23.6836 52.5975 23.7108C52.503 23.6157 52.4155 23.5205 52.3347 23.4254C52.2672 23.3438 52.2133 23.2351 52.1727 23.0991C52.1051 23.0991 52.0715 23.0652 52.0715 22.9972C52.0848 22.9292 52.0649 22.8952 52.0106 22.8952C52.0918 22.7593 52.1254 22.6846 52.1117 22.671C52.1117 22.6438 52.0918 22.6234 52.0512 22.6098C52.0243 22.5962 51.9973 22.5826 51.9704 22.569C51.9435 22.5418 51.9364 22.5079 51.9501 22.4671C52.004 22.3583 52.0243 22.236 52.0106 22.1C51.9973 21.9506 51.9837 21.801 51.9704 21.6515C51.9567 21.5019 51.9634 21.3592 51.9907 21.2233C52.0309 21.0874 52.132 20.9786 52.2941 20.8971C52.7529 20.9514 53.1844 20.9378 53.5893 20.8563C54.0075 20.7611 54.3988 20.632 54.7631 20.4689C55.1274 20.3058 55.4715 20.1291 55.7952 19.9387C56.1325 19.7484 56.4633 19.5785 56.787 19.429C56.8272 19.3067 56.8815 19.2047 56.9486 19.1231C57.0299 19.0416 57.1107 18.9668 57.1915 18.8989C57.2728 18.8309 57.347 18.7561 57.4141 18.6746C57.4817 18.593 57.5289 18.491 57.5559 18.3687C57.5695 18.2736 57.5426 18.2192 57.475 18.2056C57.4211 18.1784 57.3942 18.124 57.3942 18.0425L57.1716 17.9813C56.9151 17.8318 56.6249 17.7095 56.3012 17.6143C55.9775 17.5056 55.7007 17.39 55.4715 17.2677C55.3231 17.3492 55.1813 17.3696 55.0466 17.3288C54.9252 17.2881 54.7631 17.2473 54.5609 17.2065C54.102 17.1793 53.6569 17.1317 53.225 17.0638C52.8068 16.9958 52.4019 16.8735 52.0106 16.6968C51.9837 16.6288 51.9501 16.5676 51.9095 16.5132C51.8693 16.4589 51.7947 16.4453 51.6869 16.4725C51.6061 16.3637 51.5248 16.2618 51.444 16.1666C51.3632 16.0579 51.289 15.9423 51.2214 15.82C51.2484 15.6569 51.2687 15.5209 51.2824 15.4122C51.2956 15.2899 51.255 15.1743 51.1609 15.0656C51.2148 14.8889 51.255 14.7462 51.2824 14.6374C51.3093 14.5286 51.3093 14.3859 51.2824 14.2092Z" fill="#F7814B"/>
<path d="M23.9805 35.1938C23.2068 35.1938 22.5647 35.0847 22.054 34.8665C21.5434 34.6404 21.1566 34.3481 20.8935 33.9895C20.6305 33.631 20.4912 33.249 20.4757 32.8437C20.4757 32.7814 20.4989 32.7268 20.5453 32.68C20.5995 32.6254 20.6614 32.5982 20.731 32.5982H22.1933C22.3016 32.5982 22.3829 32.6177 22.437 32.6566C22.4989 32.6956 22.5531 32.7463 22.5995 32.8086C22.6614 32.9255 22.7465 33.0386 22.8548 33.1477C22.9708 33.2568 23.1179 33.3465 23.2958 33.4166C23.4815 33.479 23.7097 33.5102 23.9805 33.5102C24.4292 33.5102 24.7658 33.44 24.9902 33.2997C25.2223 33.1594 25.3383 32.9684 25.3383 32.7268C25.3383 32.5553 25.2764 32.415 25.1526 32.3059C25.0289 32.1889 24.8277 32.0876 24.5492 32.0019C24.2784 31.9083 23.9148 31.8148 23.4583 31.7212C22.8703 31.5965 22.3674 31.4367 21.9496 31.2419C21.5395 31.0392 21.2262 30.778 21.0096 30.4585C20.7929 30.1311 20.6846 29.7257 20.6846 29.2425C20.6846 28.767 20.8162 28.3422 21.0792 27.968C21.35 27.5939 21.7252 27.3015 22.2049 27.0911C22.6846 26.8806 23.2533 26.7754 23.9109 26.7754C24.4447 26.7754 24.9128 26.8455 25.3151 26.9859C25.7252 27.1262 26.0694 27.3132 26.348 27.5471C26.6265 27.7809 26.8354 28.0304 26.9747 28.2954C27.1217 28.5526 27.1991 28.806 27.2068 29.0554C27.2068 29.1177 27.1836 29.1762 27.1371 29.2308C27.0907 29.2775 27.0327 29.3009 26.9631 29.3009H25.4312C25.3461 29.3009 25.2726 29.2854 25.2107 29.2542C25.1488 29.223 25.0946 29.1723 25.0482 29.1022C25.0018 28.9307 24.878 28.7826 24.6768 28.6579C24.4834 28.5254 24.2281 28.4591 23.9109 28.4591C23.5705 28.4591 23.3035 28.5214 23.1101 28.6462C22.9244 28.7631 22.8316 28.9463 22.8316 29.1957C22.8316 29.3516 22.8819 29.488 22.9824 29.6049C23.0908 29.7219 23.2649 29.8232 23.5047 29.9089C23.7523 29.9947 24.0888 30.0843 24.5143 30.1778C25.2184 30.3103 25.7871 30.478 26.2203 30.6806C26.6536 30.8755 26.9708 31.1327 27.1719 31.4523C27.3731 31.7641 27.4737 32.1577 27.4737 32.6332C27.4737 33.1633 27.3228 33.6232 27.0211 34.0129C26.7271 34.3949 26.3171 34.6872 25.7909 34.8899C25.2648 35.0925 24.6614 35.1938 23.9805 35.1938ZM33.8114 35.8369C33.6876 35.8369 33.5909 35.8019 33.5213 35.7317C33.4594 35.6694 33.4091 35.6148 33.3704 35.568L32.9759 35.0419C32.6741 35.1432 32.3298 35.1938 31.943 35.1938C31.2312 35.1938 30.6122 35.0769 30.0862 34.8431C29.5678 34.6092 29.1577 34.2585 28.856 33.7908C28.562 33.3153 28.4034 32.7229 28.3802 32.0135C28.3724 31.6784 28.3686 31.3432 28.3686 31.008C28.3686 30.6728 28.3724 30.3337 28.3802 29.9908C28.4034 29.2892 28.5659 28.7007 28.8676 28.2252C29.1693 27.742 29.5833 27.3795 30.1094 27.1379C30.6355 26.8962 31.2467 26.7754 31.943 26.7754C32.6471 26.7754 33.2621 26.8962 33.7882 27.1379C34.3143 27.3795 34.7283 27.742 35.03 28.2252C35.3317 28.7007 35.4942 29.2892 35.5174 29.9908C35.5329 30.3337 35.5406 30.6728 35.5406 31.008C35.5406 31.3432 35.5329 31.6784 35.5174 32.0135C35.471 32.9801 35.1925 33.7284 34.6818 34.2585L35.529 35.4745C35.5368 35.4823 35.5445 35.4979 35.5522 35.5212C35.56 35.5446 35.5638 35.568 35.5638 35.5914C35.5716 35.6537 35.5522 35.7083 35.5058 35.7551C35.4594 35.8097 35.4014 35.8369 35.3317 35.8369H33.8114ZM31.943 33.5102C32.353 33.5102 32.6857 33.3854 32.941 33.136C33.2041 32.8866 33.3434 32.489 33.3588 31.9434C33.3743 31.6004 33.382 31.2769 33.382 30.9729C33.382 30.6689 33.3743 30.3532 33.3588 30.0259C33.3511 29.6595 33.2854 29.3633 33.1615 29.1372C33.0377 28.9034 32.8714 28.7319 32.6625 28.6228C32.4536 28.5137 32.2138 28.4591 31.943 28.4591C31.6799 28.4591 31.444 28.5137 31.2351 28.6228C31.0262 28.7319 30.8598 28.9034 30.736 29.1372C30.6122 29.3633 30.5465 29.6595 30.5388 30.0259C30.531 30.3532 30.5272 30.6689 30.5272 30.9729C30.5272 31.2769 30.531 31.6004 30.5388 31.9434C30.5542 32.489 30.6896 32.8866 30.9449 33.136C31.208 33.3854 31.5407 33.5102 31.943 33.5102ZM40.2978 35.1938C39.6015 35.1938 38.9902 35.0808 38.4642 34.8548C37.9458 34.6209 37.5435 34.2663 37.2572 33.7908C36.9709 33.3075 36.8278 32.6956 36.8278 31.9551V27.1846C36.8278 27.0989 36.8549 27.0287 36.9091 26.9742C36.9632 26.9196 37.0329 26.8923 37.1179 26.8923H38.615C38.7001 26.8923 38.7697 26.9196 38.8239 26.9742C38.8781 27.0287 38.9052 27.0989 38.9052 27.1846V31.9434C38.9052 32.45 39.0251 32.832 39.2649 33.0892C39.5125 33.3387 39.8568 33.4634 40.2978 33.4634C40.731 33.4634 41.0676 33.3387 41.3074 33.0892C41.5551 32.832 41.679 32.45 41.679 31.9434V27.1846C41.679 27.0989 41.706 27.0287 41.7603 26.9742C41.822 26.9196 41.8916 26.8923 41.9692 26.8923H43.4778C43.5549 26.8923 43.6208 26.9196 43.6751 26.9742C43.7369 27.0287 43.768 27.0989 43.768 27.1846V31.9551C43.768 32.6956 43.6246 33.3075 43.3382 33.7908C43.0522 34.2663 42.6497 34.6209 42.1316 34.8548C41.6131 35.0808 41.0019 35.1938 40.2978 35.1938ZM44.6612 35.0769C44.5994 35.0769 44.5414 35.0535 44.4871 35.0068C44.4407 34.9522 44.4174 34.8937 44.4174 34.8314C44.4174 34.7924 44.4212 34.7574 44.4291 34.7262L47.1563 27.2197C47.1795 27.134 47.2259 27.0599 47.2956 26.9975C47.3731 26.9274 47.4775 26.8923 47.6089 26.8923H49.3265C49.4579 26.8923 49.5586 26.9274 49.6282 26.9975C49.7057 27.0599 49.7559 27.134 49.7791 27.2197L52.4947 34.7262C52.51 34.7574 52.5179 34.7924 52.5179 34.8314C52.5179 34.8937 52.491 34.9522 52.4367 35.0068C52.3903 35.0535 52.3322 35.0769 52.2626 35.0769H50.8352C50.7191 35.0769 50.63 35.0497 50.5682 34.9951C50.5139 34.9327 50.4791 34.8782 50.4638 34.8314L50.0112 33.6388H46.9126L46.4716 34.8314C46.4562 34.8782 46.4214 34.9327 46.3671 34.9951C46.3128 35.0497 46.22 35.0769 46.0886 35.0769H44.6612ZM47.3884 31.9551H49.547L48.4561 28.8683L47.3884 31.9551ZM53.7228 35.0769C53.6378 35.0769 53.5682 35.0497 53.5139 34.9951C53.4596 34.9405 53.4327 34.8704 53.4327 34.7846V27.1846C53.4327 27.0989 53.4596 27.0287 53.5139 26.9742C53.5682 26.9196 53.6378 26.8923 53.7228 26.8923H56.7402C57.4982 26.8923 58.1444 27.017 58.6782 27.2665C59.2121 27.5081 59.622 27.8667 59.9084 28.3422C60.1948 28.8099 60.3494 29.3906 60.3726 30.0843C60.3805 30.4273 60.3842 30.7274 60.3842 30.9846C60.3842 31.2418 60.3805 31.538 60.3726 31.8732C60.3415 32.5982 60.1869 33.1983 59.9084 33.6739C59.6378 34.1494 59.239 34.504 58.7131 34.7379C58.1946 34.9639 57.5563 35.0769 56.7982 35.0769H53.7228ZM55.51 33.3932H56.7402C57.073 33.3932 57.3474 33.3426 57.5641 33.2412C57.7884 33.1321 57.955 32.9645 58.0632 32.7385C58.1792 32.5124 58.241 32.2162 58.2489 31.8499C58.2642 31.6238 58.2721 31.4211 58.2721 31.2419C58.2799 31.0626 58.2799 30.8833 58.2721 30.704C58.2721 30.5247 58.2642 30.326 58.2489 30.1077C58.2335 29.5777 58.0943 29.1918 57.8311 28.9502C57.5757 28.7007 57.1928 28.576 56.6821 28.576H55.51V33.3932Z" fill="#1A4474"/>
</svg>
