<svg width="214" height="214" viewBox="0 0 214 214" fill="none" xmlns="http://www.w3.org/2000/svg">
<rect x="0.267944" y="14.2192" width="200" height="200" transform="rotate(-4 0.267944 14.2192)" fill="#1A4474"/>
<path d="M48.8301 153.586C48.3743 153.293 48.0163 152.919 47.7559 152.463C47.4629 152.007 47.235 151.519 47.0723 150.998C46.877 150.477 46.7305 149.94 46.6328 149.387C46.5026 148.801 46.3724 148.247 46.2422 147.727C46.2422 147.271 46.3398 146.945 46.5352 146.75C46.7305 146.522 46.9421 146.311 47.1699 146.115C47.9512 146.083 48.651 146.018 49.2695 145.92C49.888 145.822 50.4902 145.725 51.0762 145.627C51.6621 145.529 52.248 145.448 52.834 145.383C53.4199 145.285 54.0547 145.236 54.7383 145.236C55.2266 144.227 55.6823 143.267 56.1055 142.355C56.5286 141.411 56.9355 140.516 57.3262 139.67C57.5215 138.856 57.7656 138.107 58.0586 137.424C58.3841 136.708 58.6934 136.04 58.9863 135.422C59.2793 134.771 59.5397 134.136 59.7676 133.518C59.9954 132.867 60.1419 132.183 60.207 131.467C60.5977 130.327 60.9395 129.286 61.2324 128.342C61.5579 127.365 61.8021 126.21 61.9648 124.875C60.7279 125.07 59.735 125.266 58.9863 125.461C58.2376 125.624 57.7005 125.786 57.375 125.949C56.724 125.917 56.2031 125.786 55.8125 125.559C55.4544 125.331 55.1615 125.054 54.9336 124.729C54.7057 124.403 54.5104 124.029 54.3477 123.605C54.1849 123.182 53.9896 122.743 53.7617 122.287C53.8919 121.994 53.9245 121.571 53.8594 121.018C53.7943 120.432 53.599 120.008 53.2734 119.748C53.5339 119.683 53.7292 119.471 53.8594 119.113C53.9896 118.723 54.0059 118.43 53.9082 118.234C54.4616 118.072 55.0475 117.974 55.666 117.941C56.2845 117.876 56.8867 117.827 57.4727 117.795C58.0911 117.73 58.6771 117.665 59.2305 117.6C59.7839 117.502 60.2559 117.323 60.6465 117.062C62.3392 116.997 64.097 116.932 65.9199 116.867C67.7754 116.802 69.4844 116.721 71.0469 116.623C71.6328 116.818 72.3001 116.916 73.0488 116.916C73.8301 116.916 74.5951 116.965 75.3438 117.062C76.125 117.16 76.8086 117.372 77.3945 117.697C78.013 118.023 78.4362 118.592 78.6641 119.406C79.1523 119.471 79.5104 119.602 79.7383 119.797C79.9987 119.992 80.1615 120.236 80.2266 120.529C80.2917 120.79 80.3079 121.099 80.2754 121.457C80.2754 121.783 80.2754 122.108 80.2754 122.434C79.7546 122.824 79.0872 123.15 78.2734 123.41C77.4922 123.638 76.6296 123.833 75.6855 123.996C74.7415 124.126 73.7487 124.224 72.707 124.289C71.6979 124.322 70.7051 124.354 69.7285 124.387C69.5658 125.461 69.2728 126.73 68.8496 128.195C68.459 129.628 68.0521 131.044 67.6289 132.443C67.2057 133.811 66.8314 135.048 66.5059 136.154C66.2129 137.229 66.0827 137.928 66.1152 138.254C65.7897 139.003 65.513 139.637 65.2852 140.158C65.0898 140.679 64.8945 141.167 64.6992 141.623C64.5365 142.079 64.3574 142.535 64.1621 142.99C63.9993 143.413 63.7878 143.902 63.5273 144.455H66.8477C66.9128 144.813 67.0592 145.057 67.2871 145.188C67.515 145.318 67.7591 145.432 68.0195 145.529C68.2799 145.627 68.5078 145.757 68.7031 145.92C68.931 146.05 69.0449 146.278 69.0449 146.604C69.6634 146.766 70.054 147.01 70.2168 147.336C70.3796 147.661 70.4121 148.02 70.3145 148.41C70.2493 148.768 70.0866 149.143 69.8262 149.533C69.5983 149.924 69.3704 150.266 69.1426 150.559C68.8496 150.493 68.5729 150.575 68.3125 150.803C68.0521 150.998 67.8079 151.226 67.5801 151.486C66.6361 151.356 65.7083 151.34 64.7969 151.438C63.8854 151.535 63.0391 151.617 62.2578 151.682C62.0951 151.714 62.0299 151.812 62.0625 151.975C62.0951 152.105 62.0625 152.202 61.9648 152.268C60.9557 151.942 59.9141 151.812 58.8398 151.877C57.7982 151.942 56.724 152.105 55.6172 152.365C54.543 152.593 53.4362 152.837 52.2969 153.098C51.1576 153.391 50.002 153.553 48.8301 153.586ZM83.791 144.113C83.498 144.178 83.2865 144.357 83.1562 144.65C83.026 144.911 82.8958 145.188 82.7656 145.48C82.668 145.773 82.554 146.05 82.4238 146.311C82.3262 146.538 82.1634 146.652 81.9355 146.652C81.903 146.913 81.8053 147.141 81.6426 147.336C81.5124 147.531 81.3822 147.743 81.252 147.971C81.1217 148.166 81.0241 148.394 80.959 148.654C80.8939 148.882 80.9264 149.159 81.0566 149.484C80.7962 149.68 80.6335 149.956 80.5684 150.314C80.5033 150.673 80.4219 151.014 80.3242 151.34C80.2591 151.665 80.1289 151.942 79.9336 152.17C79.7383 152.398 79.3802 152.495 78.8594 152.463C78.7617 152.593 78.7454 152.674 78.8105 152.707C78.8757 152.74 78.9245 152.854 78.957 153.049C78.599 152.984 78.3223 153 78.127 153.098C77.9642 153.228 77.7526 153.309 77.4922 153.342C76.8737 153.146 76.3529 152.805 75.9297 152.316C75.5391 151.828 75.181 151.291 74.8555 150.705C74.5625 150.087 74.2858 149.468 74.0254 148.85C73.7975 148.231 73.5697 147.694 73.3418 147.238C73.4395 146.88 73.4557 146.538 73.3906 146.213C73.3255 145.855 73.2116 145.562 73.0488 145.334C74.6439 141.949 76.3854 138.335 78.2734 134.494C80.1615 130.653 81.9518 126.861 83.6445 123.117C84.3932 123.41 85.1257 123.752 85.8418 124.143C86.5905 124.501 87.2578 124.924 87.8438 125.412C88.4622 125.9 88.9831 126.47 89.4062 127.121C89.8294 127.74 90.1061 128.439 90.2363 129.221C90.1712 129.416 90.0898 129.497 89.9922 129.465C89.9271 129.4 89.862 129.416 89.7969 129.514C89.9271 129.676 89.9922 129.79 89.9922 129.855C90.0247 129.921 90.0247 129.986 89.9922 130.051C89.9922 130.116 89.9922 130.214 89.9922 130.344C89.9922 130.441 90.041 130.588 90.1387 130.783C90.0085 130.751 89.9108 130.767 89.8457 130.832C89.8132 130.897 89.7155 130.897 89.5527 130.832C89.6829 131.19 89.7155 131.483 89.6504 131.711C89.6178 131.939 89.5527 132.15 89.4551 132.346C89.3574 132.508 89.276 132.704 89.2109 132.932C89.1458 133.127 89.1621 133.387 89.2598 133.713C89.1621 133.713 89.0807 133.745 89.0156 133.811C88.9831 133.843 88.9505 133.892 88.918 133.957C88.8854 133.99 88.8366 134.038 88.7715 134.104C88.7389 134.136 88.6738 134.136 88.5762 134.104C88.6738 134.82 88.7064 135.536 88.6738 136.252C88.6413 136.968 88.6087 137.701 88.5762 138.449C88.5762 139.165 88.5924 139.93 88.625 140.744C88.6576 141.525 88.7715 142.339 88.9668 143.186C90.1387 142.502 91.0664 141.623 91.75 140.549C92.4661 139.475 93.0358 138.27 93.459 136.936C93.9147 135.601 94.2565 134.169 94.4844 132.639C94.7122 131.109 94.9564 129.546 95.2168 127.951C95.5098 127.658 95.7376 127.3 95.9004 126.877C96.0632 126.454 96.2096 126.014 96.3398 125.559C96.4701 125.07 96.6003 124.598 96.7305 124.143C96.8607 123.654 97.0234 123.215 97.2188 122.824C97.707 122.889 98.1139 123.052 98.4395 123.312C98.7975 123.54 99.123 123.801 99.416 124.094C99.709 124.354 100.018 124.615 100.344 124.875C100.669 125.103 101.076 125.249 101.564 125.314C101.955 125.868 102.313 126.405 102.639 126.926C102.964 127.447 103.176 128 103.273 128.586C103.111 128.846 102.98 129.139 102.883 129.465C102.818 129.79 102.736 130.116 102.639 130.441C102.541 130.767 102.411 131.076 102.248 131.369C102.085 131.63 101.857 131.857 101.564 132.053C101.467 132.899 101.337 133.68 101.174 134.396C101.044 135.08 100.897 135.764 100.734 136.447C100.604 137.131 100.49 137.847 100.393 138.596C100.295 139.312 100.262 140.109 100.295 140.988C100.035 141.737 99.7578 142.535 99.4648 143.381C99.1719 144.227 98.944 144.992 98.7812 145.676C98.2604 146.099 97.8535 146.604 97.5605 147.189C97.2676 147.775 96.9583 148.361 96.6328 148.947C96.5026 149.077 96.4212 149.11 96.3887 149.045C96.3561 148.98 96.2422 148.931 96.0469 148.898C96.0794 149.029 96.0794 149.126 96.0469 149.191C96.0143 149.257 95.9655 149.322 95.9004 149.387C95.8678 149.419 95.8353 149.484 95.8027 149.582C95.8027 149.68 95.8353 149.81 95.9004 149.973C95.4447 150.168 95.0378 150.445 94.6797 150.803C94.3216 151.161 93.931 151.486 93.5078 151.779C93.1172 152.072 92.6289 152.268 92.043 152.365C91.4896 152.463 90.7572 152.349 89.8457 152.023C88.5111 151.047 87.3229 149.924 86.2812 148.654C85.2721 147.385 84.4421 145.871 83.791 144.113ZM126.076 139.816C126.044 139.979 126.011 140.126 125.979 140.256C125.946 140.354 125.913 140.451 125.881 140.549C125.848 140.646 125.832 140.777 125.832 140.939C125.832 141.07 125.832 141.249 125.832 141.477C124.855 143.202 123.618 144.65 122.121 145.822C120.656 146.994 119.029 148.036 117.238 148.947C115.48 149.826 113.641 150.64 111.721 151.389C109.8 152.105 107.928 152.886 106.105 153.732C105.324 153.537 104.722 153.212 104.299 152.756C103.908 152.3 103.599 151.779 103.371 151.193C103.176 150.575 103.029 149.908 102.932 149.191C102.867 148.443 102.801 147.678 102.736 146.896C102.834 146.538 102.964 146.245 103.127 146.018C103.322 145.757 103.42 145.399 103.42 144.943C103.68 144.097 103.941 143.267 104.201 142.453C104.462 141.639 104.624 140.809 104.689 139.963C104.787 139.702 104.966 139.523 105.227 139.426C105.389 137.863 105.389 136.285 105.227 134.689C105.096 133.062 104.836 131.548 104.445 130.148C104.478 129.823 104.51 129.595 104.543 129.465C104.608 129.302 104.608 129.188 104.543 129.123C104.51 128.863 104.592 128.732 104.787 128.732C105.015 128.732 105.243 128.732 105.471 128.732C105.471 128.244 105.373 127.756 105.178 127.268C105.015 126.779 104.852 126.226 104.689 125.607C104.917 125.119 105.064 124.647 105.129 124.191C105.194 123.703 105.34 123.28 105.568 122.922C107.326 123.475 109.003 124.143 110.598 124.924C112.225 125.705 113.82 126.275 115.383 126.633C116.555 127.479 117.759 128.326 118.996 129.172C120.233 129.986 121.356 130.897 122.365 131.906C123.374 132.883 124.221 134.006 124.904 135.275C125.588 136.545 125.979 138.059 126.076 139.816ZM114.504 142.502C115.188 142.242 115.855 141.965 116.506 141.672C117.189 141.379 117.808 141.053 118.361 140.695C118.947 140.305 119.468 139.865 119.924 139.377C120.38 138.889 120.754 138.303 121.047 137.619C120.852 137.229 120.591 136.887 120.266 136.594C119.94 136.268 119.615 135.975 119.289 135.715C118.964 135.422 118.638 135.129 118.312 134.836C118.02 134.543 117.775 134.185 117.58 133.762C117.157 133.697 116.783 133.583 116.457 133.42C116.132 133.225 115.806 133.046 115.48 132.883C115.188 132.688 114.862 132.508 114.504 132.346C114.178 132.183 113.788 132.085 113.332 132.053C112.616 131.695 111.965 131.434 111.379 131.271C110.826 131.109 110.402 130.897 110.109 130.637C109.882 130.637 109.702 130.686 109.572 130.783C109.898 132.02 110.142 133.192 110.305 134.299C110.467 135.373 110.549 136.464 110.549 137.57C110.581 138.645 110.533 139.751 110.402 140.891C110.272 142.03 110.093 143.267 109.865 144.602C110.191 144.569 110.484 144.504 110.744 144.406C111.037 144.276 111.314 144.146 111.574 144.016C111.867 143.885 112.16 143.771 112.453 143.674C112.779 143.544 113.153 143.462 113.576 143.43C113.674 143.234 113.804 143.072 113.967 142.941C114.162 142.811 114.341 142.665 114.504 142.502ZM137.209 149.582C137.372 150.559 137.307 151.324 137.014 151.877C136.753 152.43 136.363 152.837 135.842 153.098C135.354 153.391 134.784 153.553 134.133 153.586C133.482 153.618 132.863 153.586 132.277 153.488C131.952 153.033 131.659 152.463 131.398 151.779C131.138 151.096 130.894 150.396 130.666 149.68C130.438 148.931 130.227 148.199 130.031 147.482C129.868 146.766 129.722 146.132 129.592 145.578C129.755 145.188 129.852 144.748 129.885 144.26C129.95 143.739 129.982 143.218 129.982 142.697C130.015 142.176 130.031 141.656 130.031 141.135C130.064 140.581 130.113 140.061 130.178 139.572C130.406 138.205 130.731 136.903 131.154 135.666C131.61 134.429 131.968 133.143 132.229 131.809C132.294 131.516 132.261 131.239 132.131 130.979C132.033 130.718 132.017 130.474 132.082 130.246C132.115 130.116 132.212 130.035 132.375 130.002C132.538 129.937 132.635 129.823 132.668 129.66C132.766 129.302 132.782 129.009 132.717 128.781C132.684 128.553 132.749 128.277 132.912 127.951C133.075 127.691 133.27 127.316 133.498 126.828C133.758 126.307 133.856 125.77 133.791 125.217C134.084 125.021 134.361 124.794 134.621 124.533C134.882 124.273 135.142 124.045 135.402 123.85C135.695 123.622 136.005 123.426 136.33 123.264C136.688 123.101 137.111 123.02 137.6 123.02C137.86 123.345 138.023 123.703 138.088 124.094C138.186 124.484 138.267 124.875 138.332 125.266C138.43 125.656 138.56 126.031 138.723 126.389C138.885 126.714 139.162 126.975 139.553 127.17C139.553 127.43 139.553 127.756 139.553 128.146C139.553 128.537 139.569 128.928 139.602 129.318C139.634 129.676 139.699 130.018 139.797 130.344C139.927 130.637 140.122 130.832 140.383 130.93C139.797 132.492 139.243 134.038 138.723 135.568C138.234 137.098 137.827 138.645 137.502 140.207C137.176 141.737 136.965 143.283 136.867 144.846C136.802 146.408 136.916 147.987 137.209 149.582ZM170.119 125.51C170.152 125.738 170.152 125.917 170.119 126.047C170.119 126.145 170.103 126.242 170.07 126.34C170.07 126.438 170.07 126.551 170.07 126.682C170.07 126.779 170.103 126.942 170.168 127.17C169.484 128.277 168.687 129.042 167.775 129.465C166.896 129.855 165.936 130.148 164.895 130.344C163.853 130.507 162.779 130.686 161.672 130.881C160.598 131.076 159.523 131.499 158.449 132.15C158.026 131.988 157.635 131.988 157.277 132.15C156.952 132.313 156.464 132.362 155.812 132.297C155.617 132.492 155.373 132.639 155.08 132.736C154.787 132.801 154.494 132.883 154.201 132.98C154.331 133.273 154.38 133.583 154.348 133.908C154.348 134.201 154.396 134.445 154.494 134.641C155.633 134.738 156.887 134.722 158.254 134.592C159.654 134.462 161.021 134.38 162.355 134.348C162.388 134.51 162.372 134.624 162.307 134.689C162.242 134.722 162.225 134.803 162.258 134.934C162.486 135.096 162.714 135.308 162.941 135.568C163.169 135.796 163.397 136.024 163.625 136.252C163.853 136.48 164.081 136.675 164.309 136.838C164.569 136.968 164.862 137.017 165.188 136.984C165.318 137.245 165.399 137.538 165.432 137.863C165.497 138.156 165.464 138.465 165.334 138.791C164.813 139.149 164.292 139.523 163.771 139.914C163.251 140.272 162.697 140.598 162.111 140.891C161.558 141.184 160.956 141.428 160.305 141.623C159.686 141.786 158.986 141.851 158.205 141.818C158.042 141.818 157.912 141.818 157.814 141.818C157.749 141.818 157.652 141.77 157.521 141.672C157.261 141.835 156.887 141.883 156.398 141.818C155.943 141.753 155.585 141.802 155.324 141.965C154.966 141.802 154.527 141.737 154.006 141.77C153.518 141.77 153.078 141.704 152.688 141.574C152.167 142.258 151.695 142.99 151.271 143.771C150.848 144.553 150.474 145.383 150.148 146.262C151.255 146.424 152.167 146.49 152.883 146.457C153.632 146.424 154.331 146.376 154.982 146.311C155.633 146.213 156.301 146.132 156.984 146.066C157.668 145.969 158.531 145.936 159.572 145.969C160.223 145.611 160.988 145.383 161.867 145.285C162.779 145.155 163.609 144.96 164.357 144.699C164.618 144.797 164.846 144.976 165.041 145.236C165.236 145.464 165.415 145.692 165.578 145.92C165.773 146.115 165.969 146.294 166.164 146.457C166.359 146.62 166.604 146.685 166.896 146.652C167.027 146.783 167.108 146.945 167.141 147.141C167.206 147.303 167.255 147.466 167.287 147.629C167.32 147.792 167.368 147.938 167.434 148.068C167.531 148.166 167.678 148.199 167.873 148.166C167.385 149.24 166.815 150.07 166.164 150.656C165.546 151.21 164.829 151.633 164.016 151.926C163.202 152.219 162.29 152.447 161.281 152.609C160.305 152.772 159.214 152.967 158.01 153.195C157.717 153.26 157.473 153.244 157.277 153.146C157.082 153.081 156.854 153.049 156.594 153.049C155.845 153.212 154.95 153.358 153.908 153.488C152.867 153.618 151.809 153.667 150.734 153.635C149.66 153.602 148.635 153.456 147.658 153.195C146.682 152.967 145.884 152.544 145.266 151.926C145.005 151.698 144.826 151.438 144.729 151.145C144.663 150.819 144.452 150.575 144.094 150.412C144.061 149.989 143.996 149.517 143.898 148.996C143.801 148.475 143.703 147.938 143.605 147.385C143.508 146.799 143.426 146.229 143.361 145.676C143.329 145.122 143.361 144.618 143.459 144.162C143.557 143.674 143.752 143.234 144.045 142.844C144.37 142.453 144.484 142.03 144.387 141.574C144.549 141.542 144.647 141.46 144.68 141.33C144.712 141.167 144.842 141.102 145.07 141.135C145.266 140.549 145.477 139.995 145.705 139.475C145.933 138.954 146.161 138.449 146.389 137.961C146.649 137.473 146.893 136.984 147.121 136.496C147.382 135.975 147.626 135.406 147.854 134.787C147.398 134.364 147.056 133.908 146.828 133.42C146.633 132.899 146.486 132.395 146.389 131.906C146.291 131.385 146.21 130.865 146.145 130.344C146.079 129.79 145.965 129.237 145.803 128.684C146.128 128.195 146.519 127.805 146.975 127.512C147.463 127.186 147.984 126.926 148.537 126.73C149.09 126.535 149.693 126.372 150.344 126.242C150.995 126.112 151.678 125.965 152.395 125.803C153.697 125.38 154.852 125.054 155.861 124.826C156.903 124.598 157.912 124.419 158.889 124.289C159.898 124.126 160.939 123.98 162.014 123.85C163.088 123.719 164.309 123.524 165.676 123.264C165.969 123.557 166.245 123.703 166.506 123.703C166.636 123.41 166.783 123.329 166.945 123.459C167.141 123.557 167.222 123.459 167.189 123.166C167.515 123.719 167.922 124.191 168.41 124.582C168.931 124.94 169.501 125.249 170.119 125.51ZM169.729 131.027C169.956 130.344 170.314 129.758 170.803 129.27C171.324 128.781 171.877 128.374 172.463 128.049C173.081 127.691 173.716 127.398 174.367 127.17C175.018 126.942 175.637 126.747 176.223 126.584C177.525 126.031 178.908 125.51 180.373 125.021C181.87 124.501 183.384 124.045 184.914 123.654C186.477 123.264 188.072 123.02 189.699 122.922C191.327 122.792 193.036 122.987 194.826 123.508C194.924 123.833 195.07 124.143 195.266 124.436C195.461 124.729 195.656 125.021 195.852 125.314C196.079 125.607 196.275 125.9 196.438 126.193C196.6 126.454 196.698 126.73 196.73 127.023C197.056 127.316 197.316 127.642 197.512 128C197.707 128.326 197.74 128.765 197.609 129.318C197.284 129.579 196.958 129.823 196.633 130.051C196.34 130.246 196.014 130.425 195.656 130.588C194.452 130.295 193.231 130.197 191.994 130.295C190.757 130.393 189.65 130.474 188.674 130.539C188.381 130.246 188.023 130.1 187.6 130.1C187.209 130.1 186.786 130.165 186.33 130.295C185.907 130.425 185.467 130.555 185.012 130.686C184.589 130.816 184.182 130.848 183.791 130.783C183.465 131.044 183.059 131.223 182.57 131.32C182.115 131.385 181.61 131.451 181.057 131.516C181.024 131.678 181.057 131.792 181.154 131.857C181.252 131.89 181.268 131.988 181.203 132.15C181.398 132.378 181.643 132.541 181.936 132.639C182.261 132.736 182.587 132.834 182.912 132.932C183.27 133.029 183.579 133.16 183.84 133.322C184.1 133.452 184.279 133.68 184.377 134.006C184.865 134.006 185.288 134.12 185.646 134.348C186.005 134.576 186.298 134.852 186.525 135.178C186.753 135.503 186.916 135.861 187.014 136.252C187.144 136.61 187.209 136.936 187.209 137.229C187.307 137.489 187.421 137.603 187.551 137.57C187.681 137.538 187.827 137.603 187.99 137.766C188.088 138.189 188.332 138.628 188.723 139.084C189.113 139.507 189.423 139.979 189.65 140.5C189.715 141.314 189.764 142.046 189.797 142.697C189.829 143.316 189.715 143.951 189.455 144.602C188.967 145.806 188.283 146.88 187.404 147.824C186.558 148.768 185.581 149.615 184.475 150.363C183.4 151.079 182.245 151.698 181.008 152.219C179.771 152.74 178.566 153.179 177.395 153.537C177.264 153.505 177.134 153.505 177.004 153.537C176.874 153.57 176.841 153.488 176.906 153.293C176.646 153.521 176.353 153.667 176.027 153.732C175.734 153.798 175.409 153.814 175.051 153.781C174.693 153.781 174.318 153.765 173.928 153.732C173.57 153.7 173.228 153.716 172.902 153.781C172.674 153.553 172.463 153.326 172.268 153.098C172.105 152.902 171.975 152.642 171.877 152.316C171.714 152.316 171.633 152.235 171.633 152.072C171.665 151.91 171.617 151.828 171.486 151.828C171.682 151.503 171.763 151.324 171.73 151.291C171.73 151.226 171.682 151.177 171.584 151.145C171.519 151.112 171.454 151.079 171.389 151.047C171.324 150.982 171.307 150.9 171.34 150.803C171.47 150.542 171.519 150.249 171.486 149.924C171.454 149.566 171.421 149.208 171.389 148.85C171.356 148.492 171.372 148.15 171.438 147.824C171.535 147.499 171.779 147.238 172.17 147.043C173.277 147.173 174.318 147.141 175.295 146.945C176.304 146.717 177.248 146.408 178.127 146.018C179.006 145.627 179.836 145.204 180.617 144.748C181.431 144.292 182.229 143.885 183.01 143.527C183.107 143.234 183.238 142.99 183.4 142.795C183.596 142.6 183.791 142.421 183.986 142.258C184.182 142.095 184.361 141.916 184.523 141.721C184.686 141.525 184.8 141.281 184.865 140.988C184.898 140.76 184.833 140.63 184.67 140.598C184.54 140.533 184.475 140.402 184.475 140.207L183.938 140.061C183.319 139.702 182.619 139.41 181.838 139.182C181.057 138.921 180.389 138.645 179.836 138.352C179.478 138.547 179.136 138.596 178.811 138.498C178.518 138.4 178.127 138.303 177.639 138.205C176.532 138.14 175.458 138.026 174.416 137.863C173.407 137.701 172.43 137.408 171.486 136.984C171.421 136.822 171.34 136.675 171.242 136.545C171.145 136.415 170.965 136.382 170.705 136.447C170.51 136.187 170.314 135.943 170.119 135.715C169.924 135.454 169.745 135.178 169.582 134.885C169.647 134.494 169.696 134.169 169.729 133.908C169.761 133.615 169.663 133.339 169.436 133.078C169.566 132.655 169.663 132.313 169.729 132.053C169.794 131.792 169.794 131.451 169.729 131.027Z" fill="#F7814B"/>
<path d="M103.268 181.28C101.401 181.28 99.852 181.019 98.62 180.496C97.388 179.955 96.4547 179.255 95.82 178.396C95.1853 177.537 94.8493 176.623 94.812 175.652C94.812 175.503 94.868 175.372 94.98 175.26C95.1107 175.129 95.26 175.064 95.428 175.064H98.956C99.2173 175.064 99.4133 175.111 99.544 175.204C99.6933 175.297 99.824 175.419 99.936 175.568C100.085 175.848 100.291 176.119 100.552 176.38C100.832 176.641 101.187 176.856 101.616 177.024C102.064 177.173 102.615 177.248 103.268 177.248C104.351 177.248 105.163 177.08 105.704 176.744C106.264 176.408 106.544 175.951 106.544 175.372C106.544 174.961 106.395 174.625 106.096 174.364C105.797 174.084 105.312 173.841 104.64 173.636C103.987 173.412 103.109 173.188 102.008 172.964C100.589 172.665 99.376 172.283 98.368 171.816C97.3787 171.331 96.6227 170.705 96.1 169.94C95.5773 169.156 95.316 168.185 95.316 167.028C95.316 165.889 95.6333 164.872 96.268 163.976C96.9213 163.08 97.8267 162.38 98.984 161.876C100.141 161.372 101.513 161.12 103.1 161.12C104.388 161.12 105.517 161.288 106.488 161.624C107.477 161.96 108.308 162.408 108.98 162.968C109.652 163.528 110.156 164.125 110.492 164.76C110.847 165.376 111.033 165.983 111.052 166.58C111.052 166.729 110.996 166.869 110.884 167C110.772 167.112 110.632 167.168 110.464 167.168H106.768C106.563 167.168 106.385 167.131 106.236 167.056C106.087 166.981 105.956 166.86 105.844 166.692C105.732 166.281 105.433 165.927 104.948 165.628C104.481 165.311 103.865 165.152 103.1 165.152C102.279 165.152 101.635 165.301 101.168 165.6C100.72 165.88 100.496 166.319 100.496 166.916C100.496 167.289 100.617 167.616 100.86 167.896C101.121 168.176 101.541 168.419 102.12 168.624C102.717 168.829 103.529 169.044 104.556 169.268C106.255 169.585 107.627 169.987 108.672 170.472C109.717 170.939 110.483 171.555 110.968 172.32C111.453 173.067 111.696 174.009 111.696 175.148C111.696 176.417 111.332 177.519 110.604 178.452C109.895 179.367 108.905 180.067 107.636 180.552C106.367 181.037 104.911 181.28 103.268 181.28ZM126.987 182.82C126.688 182.82 126.455 182.736 126.287 182.568C126.138 182.419 126.016 182.288 125.923 182.176L124.971 180.916C124.243 181.159 123.412 181.28 122.479 181.28C120.762 181.28 119.268 181 117.999 180.44C116.748 179.88 115.759 179.04 115.031 177.92C114.322 176.781 113.939 175.363 113.883 173.664C113.864 172.861 113.855 172.059 113.855 171.256C113.855 170.453 113.864 169.641 113.883 168.82C113.939 167.14 114.331 165.731 115.059 164.592C115.787 163.435 116.786 162.567 118.055 161.988C119.324 161.409 120.799 161.12 122.479 161.12C124.178 161.12 125.662 161.409 126.931 161.988C128.2 162.567 129.199 163.435 129.927 164.592C130.655 165.731 131.047 167.14 131.103 168.82C131.14 169.641 131.159 170.453 131.159 171.256C131.159 172.059 131.14 172.861 131.103 173.664C130.991 175.979 130.319 177.771 129.087 179.04L131.131 181.952C131.15 181.971 131.168 182.008 131.187 182.064C131.206 182.12 131.215 182.176 131.215 182.232C131.234 182.381 131.187 182.512 131.075 182.624C130.963 182.755 130.823 182.82 130.655 182.82H126.987ZM122.479 177.248C123.468 177.248 124.271 176.949 124.887 176.352C125.522 175.755 125.858 174.803 125.895 173.496C125.932 172.675 125.951 171.9 125.951 171.172C125.951 170.444 125.932 169.688 125.895 168.904C125.876 168.027 125.718 167.317 125.419 166.776C125.12 166.216 124.719 165.805 124.215 165.544C123.711 165.283 123.132 165.152 122.479 165.152C121.844 165.152 121.275 165.283 120.771 165.544C120.267 165.805 119.866 166.216 119.567 166.776C119.268 167.317 119.11 168.027 119.091 168.904C119.072 169.688 119.063 170.444 119.063 171.172C119.063 171.9 119.072 172.675 119.091 173.496C119.128 174.803 119.455 175.755 120.071 176.352C120.706 176.949 121.508 177.248 122.479 177.248ZM142.637 181.28C140.957 181.28 139.482 181.009 138.213 180.468C136.962 179.908 135.991 179.059 135.301 177.92C134.61 176.763 134.265 175.297 134.265 173.524V162.1C134.265 161.895 134.33 161.727 134.461 161.596C134.591 161.465 134.759 161.4 134.965 161.4H138.577C138.782 161.4 138.95 161.465 139.081 161.596C139.211 161.727 139.277 161.895 139.277 162.1V173.496C139.277 174.709 139.566 175.624 140.145 176.24C140.742 176.837 141.573 177.136 142.637 177.136C143.682 177.136 144.494 176.837 145.073 176.24C145.67 175.624 145.969 174.709 145.969 173.496V162.1C145.969 161.895 146.034 161.727 146.165 161.596C146.314 161.465 146.482 161.4 146.669 161.4H150.309C150.495 161.4 150.654 161.465 150.785 161.596C150.934 161.727 151.009 161.895 151.009 162.1V173.524C151.009 175.297 150.663 176.763 149.973 177.92C149.282 179.059 148.311 179.908 147.061 180.468C145.81 181.009 144.335 181.28 142.637 181.28ZM153.164 181C153.015 181 152.875 180.944 152.744 180.832C152.632 180.701 152.576 180.561 152.576 180.412C152.576 180.319 152.586 180.235 152.604 180.16L159.184 162.184C159.24 161.979 159.352 161.801 159.52 161.652C159.707 161.484 159.959 161.4 160.276 161.4H164.42C164.738 161.4 164.98 161.484 165.148 161.652C165.335 161.801 165.456 161.979 165.512 162.184L172.064 180.16C172.102 180.235 172.12 180.319 172.12 180.412C172.12 180.561 172.055 180.701 171.924 180.832C171.812 180.944 171.672 181 171.504 181H168.06C167.78 181 167.566 180.935 167.416 180.804C167.286 180.655 167.202 180.524 167.164 180.412L166.072 177.556H158.596L157.532 180.412C157.495 180.524 157.411 180.655 157.28 180.804C157.15 180.935 156.926 181 156.608 181H153.164ZM159.744 173.524H164.952L162.32 166.132L159.744 173.524ZM175.027 181C174.822 181 174.654 180.935 174.523 180.804C174.393 180.673 174.327 180.505 174.327 180.3V162.1C174.327 161.895 174.393 161.727 174.523 161.596C174.654 161.465 174.822 161.4 175.027 161.4H182.307C184.137 161.4 185.695 161.699 186.983 162.296C188.271 162.875 189.261 163.733 189.951 164.872C190.642 165.992 191.015 167.383 191.071 169.044C191.09 169.865 191.099 170.584 191.099 171.2C191.099 171.816 191.09 172.525 191.071 173.328C190.997 175.064 190.623 176.501 189.951 177.64C189.298 178.779 188.337 179.628 187.067 180.188C185.817 180.729 184.277 181 182.447 181H175.027ZM179.339 176.968H182.307C183.11 176.968 183.773 176.847 184.295 176.604C184.837 176.343 185.238 175.941 185.499 175.4C185.779 174.859 185.929 174.149 185.947 173.272C185.985 172.731 186.003 172.245 186.003 171.816C186.022 171.387 186.022 170.957 186.003 170.528C186.003 170.099 185.985 169.623 185.947 169.1C185.91 167.831 185.574 166.907 184.939 166.328C184.323 165.731 183.399 165.432 182.167 165.432H179.339V176.968Z" fill="white"/>
</svg>
