<svg width="50" height="49" viewBox="0 0 50 49" fill="none" xmlns="http://www.w3.org/2000/svg">
<path fill-rule="evenodd" clip-rule="evenodd" d="M25 1C19.3021 0.997076 13.7891 3.02252 9.44842 6.71366C5.10769 10.4048 2.22263 15.5206 1.30984 21.1449C0.397063 26.7693 1.51617 32.5349 4.46678 37.4093C7.41739 42.2838 12.0068 45.9487 17.4132 47.7479C18.6182 47.9711 19.0533 47.2347 19.0533 46.6322C19.0533 46.0298 19.0533 44.557 19.0533 42.5599C12.3591 44.0103 10.9756 39.3467 10.9756 39.3467C10.5328 37.8711 9.56943 36.6064 8.26445 35.7876C6.08883 34.3037 8.4318 34.326 8.4318 34.326C9.19176 34.4324 9.91743 34.7108 10.5535 35.14C11.1896 35.5693 11.7194 36.138 12.1025 36.8029C14.2446 40.4736 17.681 39.4136 19.0868 38.8C19.1978 37.5812 19.7397 36.4419 20.6153 35.5868C15.2822 34.9843 9.68139 32.9314 9.68139 23.738C9.64604 21.3531 10.5334 19.0466 12.1582 17.3004C11.4201 15.2324 11.5039 12.96 12.3925 10.9521C12.3925 10.9521 14.4008 10.305 18.9864 13.4066C22.9163 12.3355 27.0613 12.3355 30.9913 13.4066C35.5769 10.305 37.5851 10.9521 37.5851 10.9521C38.467 12.9615 38.5508 15.2314 37.8194 17.3004C39.4412 19.0478 40.3246 21.3544 40.2851 23.738C40.2851 32.9537 34.7066 34.9731 29.3401 35.5756C29.9159 36.1591 30.3594 36.8596 30.6405 37.6297C30.9216 38.3997 31.0336 39.2212 30.969 40.0384C30.969 43.2405 30.969 45.8289 30.969 46.6211C30.969 47.4132 31.4041 48.0046 32.6202 47.7368C38.0211 45.9306 42.6032 42.2618 45.5469 37.3867C48.4906 32.5116 49.6038 26.7482 48.6873 21.1275C47.7709 15.5068 44.8846 10.3955 40.5449 6.70794C36.2051 3.02036 30.6949 0.997071 25 1Z" stroke="white" stroke-width="2" stroke-linecap="round" stroke-linejoin="round"/>
</svg>
