<svg width="50" height="38" viewBox="0 0 50 38" fill="none" xmlns="http://www.w3.org/2000/svg">
<path d="M11.9415 4.31908V37H4.15077C3.31938 37 2.52168 36.6694 1.9315 36.0802C1.34132 35.491 1.0065 34.691 1 33.8545V10.1023" stroke="white" stroke-width="2" stroke-miterlimit="10"/>
<path d="M38.0585 4.31908V37H45.8492C46.6806 37 47.4783 36.6694 48.0685 36.0802C48.6587 35.491 48.9935 34.691 49 33.8545V10.1023" stroke="white" stroke-width="2" stroke-miterlimit="10"/>
<path d="M25 28.2198L49 10.3252V5.86703C48.9978 4.96509 48.7471 4.08142 48.2758 3.31416C47.8046 2.54691 47.1312 1.9261 46.3305 1.52068C45.5297 1.11527 44.633 0.941112 43.7398 1.01756C42.8466 1.09401 41.992 1.41807 41.2708 1.95374L25 14.1147L8.72923 1.95374C8.00805 1.41807 7.15341 1.09401 6.26023 1.01756C5.36705 0.941112 4.47029 1.11527 3.66954 1.52068C2.8688 1.9261 2.19541 2.54691 1.72416 3.31416C1.25291 4.08142 1.00224 4.96509 1 5.86703V10.3252L25 28.2198Z" stroke="white" stroke-width="2" stroke-miterlimit="10"/>
</svg>
